<svg width="96" height="99" viewBox="0 0 96 99" fill="none" xmlns="http://www.w3.org/2000/svg">
<path d="M50.8226 66.3637H44.2349C38.7429 66.3637 34.292 61.9128 34.292 56.4207V49.683C34.292 47.8826 32.8326 46.4187 31.0276 46.4187H24.2899C18.7978 46.4187 14.3469 41.9678 14.3469 36.4757V29.888C14.3469 24.396 18.7978 19.945 24.2899 19.945H28.1543C29.5728 19.945 30.723 21.0953 30.723 22.5137C30.723 23.9322 29.5728 25.0825 28.1543 25.0825H24.2899C21.6348 25.0825 19.4798 27.2374 19.4798 29.8925V36.4803C19.4798 39.1354 21.6348 41.2904 24.2899 41.2904H31.0276C35.665 41.2904 39.4294 45.0502 39.4294 49.6921V56.4298C39.4294 59.0849 41.5844 61.2399 44.2395 61.2399H50.8272C53.4823 61.2399 55.6373 59.0849 55.6373 56.4298V51.447C55.6373 47.2416 54.0006 43.2862 51.0272 40.3129L40.416 29.697C36.4742 25.7508 34.3011 20.5088 34.3011 14.9304V9.94296C34.3011 4.45092 38.752 0 44.244 0H50.8317C56.3238 0 60.7747 4.45092 60.7747 9.94296V16.6807C60.7747 18.4811 62.2341 19.945 64.039 19.945H70.7768C76.2688 19.945 80.7197 24.396 80.7197 29.888V36.4757C80.7197 41.9678 76.2688 46.4187 70.7768 46.4187H66.9169C65.4984 46.4187 64.3481 45.2684 64.3481 43.85C64.3481 42.4315 65.4984 41.2813 66.9169 41.2813H70.7768C73.4319 41.2813 75.5868 39.1263 75.5868 36.4712V29.8834C75.5868 27.2283 73.4319 25.0734 70.7768 25.0734H64.0299C59.3926 25.0734 55.6327 21.3135 55.6327 16.6762V9.94296C55.6327 7.28787 53.4777 5.13288 50.8226 5.13288H44.2349C41.5798 5.13288 39.4248 7.28332 39.4248 9.94296V14.9258C39.4248 19.1312 41.0615 23.0866 44.0349 26.0599L54.6462 36.6712C58.5924 40.6129 60.7611 45.8595 60.7611 51.4379V56.4207C60.7656 61.9082 56.3147 66.3637 50.8226 66.3637Z" fill="#199A8E"/>
<path d="M2.13128 92.521V74.5463H5.57215L13.2242 87.2313H11.4011L18.9248 74.5463H22.34L22.3913 92.521H18.4882L18.4626 80.5293H19.1816L13.1729 90.6208H11.2984L5.1613 80.5293H6.03436V92.521H2.13128ZM33.2295 92.7264C31.6546 92.7264 30.268 92.4183 29.0696 91.802C27.8884 91.1857 26.9726 90.3469 26.3221 89.2856C25.6716 88.2071 25.3463 86.9831 25.3463 85.6136C25.3463 84.227 25.663 83.003 26.2964 81.9416C26.9469 80.8631 27.8285 80.0243 28.9413 79.4252C30.054 78.8089 31.3122 78.5007 32.7159 78.5007C34.0683 78.5007 35.2837 78.7918 36.3622 79.3738C37.4578 79.9387 38.3223 80.7604 38.9557 81.8389C39.5891 82.9003 39.9058 84.1756 39.9058 85.6649C39.9058 85.819 39.8973 85.9988 39.8801 86.2042C39.863 86.3925 39.8459 86.5722 39.8288 86.7434H28.6074V84.4067H37.7232L36.1825 85.1C36.1825 84.381 36.037 83.7562 35.746 83.2255C35.4549 82.6948 35.0526 82.284 34.5391 81.993C34.0255 81.6848 33.4264 81.5308 32.7416 81.5308C32.0569 81.5308 31.4491 81.6848 30.9185 81.993C30.4049 82.284 30.0026 82.7034 29.7116 83.2512C29.4206 83.7819 29.2751 84.4153 29.2751 85.1514V85.7676C29.2751 86.5209 29.4377 87.1885 29.763 87.7705C30.1053 88.3355 30.5761 88.772 31.1752 89.0801C31.7915 89.3711 32.5105 89.5167 33.3322 89.5167C34.0683 89.5167 34.7103 89.4054 35.2581 89.1828C35.823 88.9603 36.3366 88.6265 36.7988 88.1814L38.93 90.4924C38.2966 91.2114 37.5006 91.7678 36.542 92.1615C35.5833 92.5381 34.4792 92.7264 33.2295 92.7264ZM48.5044 92.7264C47.2033 92.7264 46.0307 92.4354 44.9865 91.8534C43.9422 91.2542 43.112 90.4239 42.4957 89.3626C41.8965 88.3012 41.597 87.0516 41.597 85.6136C41.597 84.1585 41.8965 82.9003 42.4957 81.8389C43.112 80.7775 43.9422 79.9558 44.9865 79.3738C46.0307 78.7918 47.2033 78.5007 48.5044 78.5007C49.6684 78.5007 50.687 78.7575 51.5601 79.2711C52.4331 79.7846 53.1093 80.5635 53.5886 81.6078C54.068 82.652 54.3076 83.9873 54.3076 85.6136C54.3076 87.2227 54.0765 88.558 53.6143 89.6194C53.1521 90.6636 52.4845 91.4425 51.6114 91.9561C50.7555 92.4696 49.7198 92.7264 48.5044 92.7264ZM49.1977 89.4396C49.8482 89.4396 50.4388 89.2856 50.9695 88.9774C51.5002 88.6693 51.9196 88.2327 52.2277 87.6678C52.553 87.0858 52.7156 86.401 52.7156 85.6136C52.7156 84.809 52.553 84.1242 52.2277 83.5593C51.9196 82.9944 51.5002 82.5579 50.9695 82.2497C50.4388 81.9416 49.8482 81.7875 49.1977 81.7875C48.53 81.7875 47.9309 81.9416 47.4002 82.2497C46.8695 82.5579 46.4416 82.9944 46.1163 83.5593C45.8082 84.1242 45.6541 84.809 45.6541 85.6136C45.6541 86.401 45.8082 87.0858 46.1163 87.6678C46.4416 88.2327 46.8695 88.6693 47.4002 88.9774C47.9309 89.2856 48.53 89.4396 49.1977 89.4396ZM52.8183 92.521V89.6964L52.8953 85.5879L52.6385 81.5051V73.4678H56.6443V92.521H52.8183ZM60.3518 92.521V78.7062H64.3576V92.521H60.3518ZM62.3547 76.7803C61.6186 76.7803 61.0194 76.5663 60.5572 76.1384C60.095 75.7104 59.8639 75.1797 59.8639 74.5463C59.8639 73.9129 60.095 73.3822 60.5572 72.9543C61.0194 72.5263 61.6186 72.3123 62.3547 72.3123C63.0908 72.3123 63.69 72.5177 64.1522 72.9286C64.6144 73.3223 64.8455 73.8359 64.8455 74.4693C64.8455 75.1369 64.6144 75.6933 64.1522 76.1384C63.7071 76.5663 63.1079 76.7803 62.3547 76.7803ZM74.7516 92.7264C73.2623 92.7264 71.9356 92.4268 70.7715 91.8277C69.6074 91.2114 68.6916 90.364 68.024 89.2856C67.3734 88.2071 67.0482 86.9831 67.0482 85.6136C67.0482 84.227 67.3734 83.003 68.024 81.9416C68.6916 80.8631 69.6074 80.0243 70.7715 79.4252C71.9356 78.8089 73.2623 78.5007 74.7516 78.5007C76.2067 78.5007 77.4735 78.8089 78.552 79.4252C79.6305 80.0243 80.4265 80.8888 80.9401 82.0186L77.833 83.6877C77.4735 83.0372 77.0199 82.5579 76.4721 82.2497C75.9414 81.9416 75.3593 81.7875 74.7259 81.7875C74.0412 81.7875 73.4249 81.9416 72.8771 82.2497C72.3293 82.5579 71.8928 82.9944 71.5675 83.5593C71.2594 84.1242 71.1053 84.809 71.1053 85.6136C71.1053 86.4182 71.2594 87.1029 71.5675 87.6678C71.8928 88.2327 72.3293 88.6693 72.8771 88.9774C73.4249 89.2856 74.0412 89.4396 74.7259 89.4396C75.3593 89.4396 75.9414 89.2941 76.4721 89.0031C77.0199 88.695 77.4735 88.2071 77.833 87.5394L80.9401 89.2342C80.4265 90.3469 79.6305 91.2114 78.552 91.8277C77.4735 92.4268 76.2067 92.7264 74.7516 92.7264ZM87.8942 92.7264C86.713 92.7264 85.5746 92.5895 84.479 92.3156C83.4005 92.0246 82.5446 91.6651 81.9112 91.2371L83.2465 88.3611C83.8799 88.7549 84.6245 89.0801 85.4805 89.3369C86.3535 89.5766 87.2095 89.6964 88.0483 89.6964C88.9727 89.6964 89.6232 89.5851 89.9998 89.3626C90.3935 89.14 90.5904 88.8319 90.5904 88.4382C90.5904 88.1129 90.4363 87.8733 90.1282 87.7192C89.8372 87.548 89.4435 87.4196 88.947 87.334C88.4506 87.2484 87.9028 87.1628 87.3036 87.0772C86.7216 86.9916 86.131 86.8804 85.5318 86.7434C84.9327 86.5893 84.3849 86.3668 83.8884 86.0758C83.392 85.7848 82.9897 85.391 82.6816 84.8946C82.3905 84.3981 82.245 83.7562 82.245 82.9687C82.245 82.0957 82.4932 81.3253 82.9897 80.6577C83.5033 79.9901 84.2394 79.4679 85.198 79.0913C86.1567 78.6976 87.3036 78.5007 88.6389 78.5007C89.5804 78.5007 90.5391 78.6035 91.5148 78.8089C92.4906 79.0143 93.3037 79.3139 93.9542 79.7076L92.619 82.5579C91.9514 82.1642 91.2752 81.8988 90.5904 81.7619C89.9228 81.6078 89.2723 81.5308 88.6389 81.5308C87.7487 81.5308 87.0982 81.6506 86.6873 81.8903C86.2765 82.1299 86.0711 82.4381 86.0711 82.8147C86.0711 83.157 86.2166 83.4138 86.5076 83.585C86.8157 83.7562 87.218 83.8931 87.7145 83.9959C88.2109 84.0986 88.7501 84.1927 89.3322 84.2783C89.9313 84.3468 90.5305 84.4581 91.1297 84.6121C91.7288 84.7662 92.2681 84.9887 92.7474 85.2798C93.2438 85.5537 93.6461 85.9388 93.9542 86.4353C94.2624 86.9146 94.4165 87.548 94.4165 88.3355C94.4165 89.1914 94.1597 89.9532 93.6461 90.6208C93.1325 91.2713 92.3879 91.7849 91.4121 92.1615C90.4535 92.5381 89.2808 92.7264 87.8942 92.7264Z" fill="#199A8E"/>
</svg>
