<svg width="25" height="31" viewBox="0 0 25 31" fill="none" xmlns="http://www.w3.org/2000/svg">
<path fill-rule="evenodd" clip-rule="evenodd" d="M0.104187 13.0468C0.104187 6.33867 5.70985 0.916748 12.4905 0.916748C19.2902 0.916748 24.8959 6.33867 24.8959 13.0468C24.8959 16.4271 23.6665 19.5654 21.643 22.2253C19.4108 25.1594 16.6594 27.7158 13.5625 29.7224C12.8537 30.1861 12.214 30.2211 11.4361 29.7224C8.32151 27.7158 5.57015 25.1594 3.357 22.2253C1.33208 19.5654 0.104187 16.4271 0.104187 13.0468ZM8.40827 13.4245C8.40827 15.6717 10.242 17.4392 12.4905 17.4392C14.7404 17.4392 16.5918 15.6717 16.5918 13.4245C16.5918 11.1948 14.7404 9.3413 12.4905 9.3413C10.242 9.3413 8.40827 11.1948 8.40827 13.4245Z" fill="#199A8E"/>
</svg>
